<?xml version="1.0" standalone="no"?>
<!DOCTYPE svg PUBLIC "-//W3C//DTD SVG 20010904//EN"
 "http://www.w3.org/TR/2001/REC-SVG-20010904/DTD/svg10.dtd">
<svg version="1.0" xmlns="http://www.w3.org/2000/svg"
 width="1024.000000pt" height="1024.000000pt" viewBox="0 0 1024.000000 1024.000000"
 preserveAspectRatio="xMidYMid meet">
<metadata>
Created by potrace 1.14, written by Peter Selinger 2001-2017
</metadata>
<g transform="translate(0.000000,1024.000000) scale(0.100000,-0.100000)"
fill="#000000" stroke="none">
<path d="M7596 8913 c-11 -26 -41 -93 -68 -149 -39 -81 -58 -107 -93 -134 -48
-36 -61 -58 -46 -73 7 -7 4 -19 -8 -36 -10 -14 -33 -57 -52 -96 -39 -79 -44
-85 -81 -85 -78 0 -196 -51 -294 -125 -25 -19 -56 -38 -70 -41 -13 -3 -41 -15
-61 -25 -21 -10 -55 -19 -76 -19 -21 0 -47 -4 -57 -10 -29 -16 -59 -72 -79
-151 -23 -95 -44 -142 -87 -205 -20 -29 -49 -90 -64 -137 -16 -47 -39 -107
-51 -134 -11 -26 -25 -57 -29 -68 -4 -11 -20 -46 -34 -78 -14 -32 -26 -60 -26
-62 0 -3 -17 -42 -39 -87 -21 -46 -45 -99 -54 -118 -52 -118 -79 -177 -87
-192 -6 -10 -10 -22 -10 -28 0 -6 -9 -32 -21 -58 -73 -164 -93 -191 -129 -172
-20 11 -22 17 -16 58 3 25 11 51 16 56 6 6 10 19 10 30 0 10 13 46 29 80 15
34 36 91 45 128 9 37 23 82 30 100 8 18 19 59 25 90 5 32 19 77 30 101 11 25
25 65 30 89 6 25 20 66 31 92 11 26 20 56 20 66 0 10 4 20 8 22 10 4 82 154
82 171 0 8 3 17 7 21 32 32 46 213 18 236 -8 6 -18 9 -24 6 -8 -6 -30 9 -143
93 -48 35 -48 33 -39 142 1 13 14 15 84 11 127 -6 618 15 630 27 6 6 19 11 28
11 25 0 43 53 35 102 -14 86 -101 152 -193 147 -44 -3 -44 -3 -74 50 -44 82
-75 118 -127 148 -44 26 -54 28 -162 28 -99 0 -122 -3 -167 -23 -28 -13 -59
-32 -69 -43 -14 -15 -31 -19 -83 -19 -78 0 -126 -21 -156 -68 -16 -25 -25 -31
-43 -27 -42 10 -93 -7 -127 -41 -18 -18 -51 -38 -74 -44 -70 -19 -85 -67 -60
-196 9 -42 20 -67 40 -88 l29 -28 0 23 c0 24 32 54 44 42 3 -4 7 -18 7 -32 1
-25 2 -24 8 4 4 18 14 31 25 33 15 3 18 0 13 -19 -4 -13 -7 -39 -7 -56 0 -38
-16 -43 -30 -10 l-9 22 0 -22 c-1 -18 -7 -23 -26 -23 -14 0 -25 5 -25 10 0 6
-4 10 -10 10 -5 0 -10 -8 -10 -18 0 -11 -27 -32 -81 -62 -73 -40 -83 -49 -107
-99 -26 -54 -29 -55 -91 -73 -36 -10 -71 -23 -78 -31 -7 -7 -16 -43 -20 -80
-6 -64 -7 -67 -32 -67 -14 0 -37 -3 -50 -7 l-24 -6 7 -174 c6 -169 5 -175 -19
-235 -14 -34 -25 -68 -25 -75 0 -34 -107 -203 -153 -241 -22 -19 -43 28 -26
59 12 23 17 175 34 1009 2 96 -1 151 -12 190 -8 30 -19 71 -23 90 -5 19 -22
86 -38 148 -28 112 -30 137 -16 220 5 33 4 42 -8 42 -18 0 -31 -27 -70 -145
-40 -124 -68 -230 -68 -261 0 -14 -9 -33 -20 -42 -16 -14 -21 -31 -23 -82 -1
-36 -5 -67 -8 -70 -8 -7 -17 -303 -25 -830 -3 -234 -8 -432 -11 -440 -6 -20
-46 75 -72 171 -11 41 -32 108 -47 149 -14 41 -34 107 -44 145 -17 69 -41 143
-62 198 -6 16 -18 27 -29 27 -23 0 -23 -15 -4 -120 7 -41 11 -78 9 -82 -2 -4
1 -10 7 -13 6 -5 2 -13 -12 -23 -13 -9 -24 -12 -26 -6 -9 27 -44 74 -55 74 -7
0 -48 -30 -90 -66 l-78 -65 -1 -52 c0 -29 -6 -144 -13 -256 -8 -137 -9 -221
-3 -253 8 -41 7 -54 -9 -83 -19 -36 -42 -51 -55 -38 -9 9 -34 141 -69 358 -6
39 -15 95 -19 125 -5 30 -14 87 -20 125 -6 39 -16 84 -22 102 -5 17 -12 51
-13 75 -7 81 -19 138 -31 148 -9 7 -11 25 -8 51 10 69 -11 107 -114 209 -83
82 -97 101 -105 139 -11 59 -33 91 -63 91 -41 0 -55 -25 -55 -98 0 -65 -1 -68
-40 -106 -99 -96 -115 -371 -34 -614 22 -65 19 -83 -9 -51 -20 25 -57 45 -57
33 0 -5 37 -91 85 -199 13 -27 52 -120 88 -205 36 -85 84 -195 107 -244 40
-85 45 -121 18 -111 -8 3 -18 15 -23 28 -11 23 -22 25 -68 12 -32 -9 -36 -6
-42 25 -2 12 -7 25 -11 29 -4 3 -4 -2 -1 -11 4 -12 1 -18 -8 -18 -8 0 -15 5
-15 11 0 6 -7 17 -15 26 -11 10 -14 25 -9 48 7 40 -3 78 -18 69 -7 -4 -8 -2
-4 4 4 6 2 21 -4 32 -8 16 -8 18 4 14 10 -4 14 2 12 19 -1 17 -6 23 -18 19
-20 -5 -26 24 -7 30 8 3 7 9 -3 19 -8 8 -13 20 -10 28 3 8 0 11 -5 8 -6 -4
-16 11 -23 32 -7 21 -22 42 -34 47 -11 6 -15 9 -8 7 6 -1 12 5 12 13 0 8 -4
13 -9 9 -15 -9 -50 49 -55 89 -3 21 -12 49 -21 62 -9 14 -15 35 -13 47 1 12
-1 27 -5 34 -4 6 -3 14 2 17 15 9 -18 66 -45 78 -13 6 -24 18 -24 27 0 14 2
14 10 1 5 -8 10 -11 10 -7 0 14 -34 52 -50 55 -10 1 -9 -3 4 -13 20 -15 11
-21 -11 -7 -10 6 -10 15 -1 40 7 18 16 32 21 32 5 0 6 -7 3 -16 -3 -8 -2 -13
3 -9 5 3 11 2 14 -2 2 -5 2 -3 1 4 -2 6 11 15 28 19 33 7 38 3 76 -52 12 -17
12 -17 8 6 -3 14 -6 37 -6 52 0 43 -35 68 -96 68 -45 0 -52 3 -57 22 -4 12 -2
27 3 32 13 17 -21 73 -85 137 -60 60 -118 90 -201 104 -65 11 -70 14 -84 53
-20 55 -54 105 -82 121 -33 17 -67 91 -83 183 -9 45 -31 69 -47 47 -8 -11 -9
-10 -4 4 3 10 6 25 6 34 0 11 7 13 28 8 25 -5 31 -1 55 36 30 46 28 82 -5 100
-22 12 -165 14 -225 3 -46 -8 -70 -20 -101 -47 -29 -27 -28 -51 5 -77 23 -18
39 -21 98 -20 38 1 75 2 81 1 16 -2 34 -71 34 -130 0 -34 10 -78 28 -124 16
-40 32 -85 36 -101 4 -17 16 -42 26 -56 19 -27 19 -27 -15 -111 -28 -70 -35
-102 -41 -192 -8 -118 -16 -134 -61 -121 -16 4 -32 8 -37 8 -4 1 -29 22 -55
47 -52 52 -110 74 -175 66 -47 -7 -90 -36 -94 -66 -3 -18 -10 -21 -53 -21 -56
0 -98 -18 -126 -53 -10 -13 -38 -31 -62 -40 -59 -24 -106 -62 -121 -96 -9 -24
-9 -35 4 -59 14 -27 23 -31 68 -36 29 -4 141 -1 248 5 229 13 321 14 373 4 25
-5 47 -3 61 5 12 6 38 10 57 8 l34 -3 -3 -52 c-2 -28 2 -69 8 -90 22 -68 82
-216 126 -308 73 -156 91 -219 109 -377 4 -34 14 -67 26 -82 21 -27 18 -46 -6
-46 -15 0 -21 15 -30 75 -11 74 -15 84 -34 90 -12 3 -24 23 -33 51 -26 92 -97
136 -218 138 -59 0 -84 -4 -116 -21 -78 -42 -144 -137 -144 -208 0 -17 -2 -34
-5 -37 -3 -3 -29 -1 -57 4 -106 19 -157 -13 -212 -135 -16 -35 -35 -61 -48
-66 -32 -12 -63 -50 -79 -93 -10 -29 -10 -45 -1 -76 23 -75 88 -111 197 -112
120 0 129 -5 172 -79 35 -60 114 -151 132 -151 4 0 34 -14 66 -31 l58 -32
-104 -42 c-196 -78 -362 -181 -468 -288 -264 -268 -279 -552 -39 -789 44 -44
104 -91 140 -110 l62 -33 1 -180 c2 -147 6 -193 22 -250 32 -111 61 -188 83
-217 11 -15 20 -30 20 -34 0 -4 11 -22 25 -40 14 -18 25 -35 25 -37 0 -2 -22
-7 -49 -11 -57 -8 -135 -55 -166 -102 -11 -16 -29 -58 -40 -92 -20 -61 -21
-62 -55 -62 -68 0 -110 -53 -110 -140 0 -28 7 -64 15 -79 14 -28 14 -28 -26
-41 -88 -29 -54 -33 222 -26 281 8 317 10 374 20 52 10 62 -12 37 -80 -17 -42
-19 -56 -9 -60 8 -3 11 -17 9 -39 -5 -43 -17 -37 -27 12 l-8 38 -13 -30 c-21
-48 -18 -138 7 -169 l20 -26 259 0 259 0 78 -81 c213 -222 443 -399 693 -537
45 -24 212 -102 305 -141 11 -5 40 -18 65 -29 25 -11 55 -22 67 -26 75 -23 20
-72 -71 -63 -28 3 -96 10 -151 17 -152 17 -639 1 -1105 -35 -187 -15 -380 -43
-380 -56 0 -3 44 -12 98 -18 53 -6 129 -16 167 -21 78 -10 212 -18 520 -30
116 -5 347 -14 515 -22 398 -17 2069 -16 2480 1 162 7 390 16 505 20 507 19
910 52 933 76 25 24 -408 55 -1141 81 l-467 16 -21 -26 c-20 -25 -24 -26 -129
-26 -87 0 -110 3 -121 16 -12 14 -9 20 21 45 19 16 40 29 46 29 32 0 314 131
447 208 20 12 54 32 75 43 54 31 198 134 277 199 60 48 252 246 288 295 l36
50 183 3 c101 1 228 3 283 4 55 1 174 -2 265 -6 l165 -9 22 24 c35 38 50 109
35 166 -15 58 -38 90 -83 121 -29 20 -41 22 -95 17 l-61 -7 -17 62 c-23 80
-65 152 -128 216 l-50 52 54 113 c73 152 83 174 106 239 52 147 101 391 102
501 0 45 1 47 43 64 85 36 173 80 192 99 11 10 40 27 65 38 95 41 136 75 163
136 40 89 51 173 38 292 -6 55 -11 146 -11 201 0 116 -12 151 -68 200 -52 46
-117 71 -194 77 -61 4 -68 7 -68 26 0 68 -51 178 -122 265 -28 34 -48 64 -45
67 3 3 119 5 257 5 241 -2 252 -1 281 19 41 30 59 70 59 130 0 93 -83 210
-149 210 -27 0 -30 4 -36 43 -4 23 -20 70 -37 105 -24 51 -41 72 -90 108 -60
44 -60 44 -145 44 -69 0 -93 -4 -124 -22 -38 -21 -40 -21 -52 -3 -8 10 -38 32
-68 50 l-54 31 -7 67 c-8 86 -41 149 -103 202 -49 41 -81 57 -138 70 -26 5
-28 9 -22 33 3 15 16 42 28 59 l22 33 240 2 c270 2 272 3 410 13 111 8 189 26
217 52 30 27 24 84 -12 118 -29 28 -36 30 -130 33 -87 4 -100 7 -100 22 0 17
-72 90 -89 90 -5 0 -22 -15 -39 -34 -30 -34 -31 -34 -48 -15 -13 14 -20 16
-31 8 -7 -6 -13 -17 -13 -23 0 -6 -15 -18 -33 -26 -31 -15 -32 -14 -52 15 -11
16 -36 40 -55 53 -31 21 -42 23 -101 17 -88 -8 -89 -6 -39 110 10 22 30 76 44
120 15 44 36 109 48 145 12 36 43 98 69 138 62 95 68 123 35 163 -14 17 -26
34 -26 37 -1 4 -3 43 -5 87 -4 87 -36 196 -81 272 -14 24 -57 75 -97 113 -39
39 -64 70 -56 70 26 0 65 45 102 118 38 75 46 119 26 139 -9 9 -9 19 0 41 9
21 9 35 1 53 -9 20 -7 34 8 69 10 25 31 84 47 132 l30 88 -25 24 c-14 13 -43
27 -65 30 l-40 7 -19 -48z m59 -166 c-8 -20 -36 -31 -29 -11 14 45 15 47 25
37 5 -5 7 -17 4 -26z m-1209 -52 c36 -10 65 -30 105 -70 69 -67 86 -102 70
-146 -6 -18 -9 -34 -6 -37 3 -3 22 0 44 6 55 17 128 15 161 -5 50 -29 89 -123
57 -136 -7 -2 -152 -1 -322 2 -292 7 -311 7 -331 -11 -13 -11 -36 -18 -63 -18
-42 0 -43 1 -37 28 l6 27 -17 -28 c-23 -35 -66 -35 -71 1 -4 27 -18 29 -25 3
-3 -12 -12 -18 -23 -17 -22 4 -21 34 2 79 8 15 13 27 10 27 -9 0 -46 -72 -46
-91 0 -10 -6 -19 -14 -19 -9 0 -13 13 -13 41 0 22 3 36 7 30 4 -7 11 -1 19 15
7 17 8 29 2 33 -5 3 -13 19 -16 34 -4 15 -11 30 -16 33 -5 3 -9 25 -9 49 0 63
28 80 130 80 59 0 78 3 88 17 26 36 76 61 145 73 95 17 105 17 163 0z m1145
-65 c5 0 18 -9 30 -21 16 -16 18 -23 9 -34 -14 -17 -39 -7 -78 28 -17 16 -19
23 -10 29 7 4 19 6 26 3 8 -3 18 -5 23 -5z m31 -137 c15 -13 15 -17 0 -43
l-16 -28 -37 25 c-37 25 -41 39 -16 70 10 14 36 4 69 -24z m-1798 18 c3 -5 -1
-12 -10 -15 -9 -3 -14 -13 -10 -21 3 -8 1 -17 -5 -20 -5 -4 -7 -11 -4 -16 4
-5 1 -9 -4 -9 -6 0 -11 -4 -11 -10 0 -5 -11 -34 -25 -64 -14 -30 -25 -61 -25
-70 0 -8 -4 -18 -10 -21 -12 -8 -12 -1 0 104 12 107 16 118 48 136 31 17 49
19 56 6z m57 -55 l22 -45 -20 -43 c-11 -24 -24 -53 -27 -65 -4 -13 -11 -23
-16 -23 -5 0 -7 7 -4 15 8 20 -6 19 -21 -2 -7 -9 -17 -13 -23 -9 -12 7 1 59
21 84 5 7 7 15 4 19 -4 3 -14 -11 -23 -33 -9 -21 -21 -50 -27 -64 -9 -22 -11
-23 -15 -6 -2 10 1 28 6 40 6 11 21 46 33 76 26 64 48 100 59 100 5 0 19 -20
31 -44z m-992 -78 c8 -35 8 -55 1 -62 -17 -17 -31 8 -36 63 -6 70 18 70 35 -1z
m766 42 c3 -5 14 -10 24 -10 17 0 18 -7 14 -67 -5 -66 -23 -113 -23 -62 -1 23
-1 23 -15 5 -10 -13 -15 -15 -15 -6 0 7 6 21 14 29 17 20 29 71 17 71 -5 0
-17 -19 -27 -42 l-17 -43 -10 53 c-5 29 -6 60 -3 68 6 16 32 19 41 4z m1901
-46 c28 -30 29 -33 9 -61 l-15 -21 -31 30 c-20 21 -28 36 -23 47 4 9 6 19 6
24 -4 17 33 5 54 -19z m-1640 -49 c-4 -18 -13 -36 -21 -39 -26 -10 -28 17 -4
61 26 47 36 38 25 -22z m484 -35 c-35 -11 -150 -12 -150 -1 0 5 39 9 88 9 58
0 79 -3 62 -8z m388 -4 c3 -3 -63 -6 -146 -6 -84 0 -152 4 -152 8 0 9 289 7
298 -2z m45 -3 c-7 -2 -19 -2 -25 0 -7 3 -2 5 12 5 14 0 19 -2 13 -5z m-4235
-23 c10 0 10 -3 -2 -15 -20 -20 -29 -19 -45 6 -12 20 -11 21 11 16 12 -4 29
-7 36 -7z m4857 -34 c140 -78 239 -216 269 -373 8 -43 12 -80 9 -83 -2 -3 -16
9 -30 25 -58 69 -112 121 -180 172 -87 65 -258 150 -368 183 -22 7 -44 16 -49
21 -6 5 -25 9 -43 9 -63 0 -40 19 82 67 50 19 75 23 150 20 84 -3 96 -6 160
-41z m-4785 24 c0 -5 -6 -10 -14 -10 -8 0 -18 5 -21 10 -3 6 3 10 14 10 12 0
21 -4 21 -10z m3320 -25 l95 0 -4 -60 c-3 -60 -13 -79 -78 -147 -21 -23 -40
-13 -129 73 -40 38 -76 69 -81 69 -6 0 -10 14 -11 31 0 22 3 29 13 25 7 -2 19
2 26 10 9 11 21 13 43 7 17 -4 74 -8 126 -8z m-1066 -11 c8 -22 8 -24 -8 -24
-21 0 -40 27 -24 33 22 9 26 8 32 -9z m2 -79 c-3 -9 -12 -12 -22 -8 -16 6 -16
7 0 18 9 7 17 18 17 26 1 8 3 6 6 -4 3 -10 2 -25 -1 -32z m2211 -41 c12 -8 29
-14 38 -14 8 0 23 -4 33 -9 9 -5 51 -25 92 -44 102 -46 267 -156 317 -210 23
-25 46 -62 52 -83 13 -47 14 -144 2 -144 -5 0 -21 20 -35 45 -20 33 -50 61
-114 103 -111 74 -294 171 -399 212 -46 17 -85 36 -89 41 -3 5 -9 7 -14 4 -8
-5 6 56 26 113 5 16 56 8 91 -14z m-2204 -21 c-7 -2 -13 -13 -13 -23 0 -18
-27 -47 -36 -38 -10 11 8 57 24 61 24 6 40 6 25 0z m892 -23 c-3 -6 3 -10 13
-10 28 0 142 -58 149 -76 3 -7 3 -20 0 -28 -5 -12 -30 -3 -118 41 -70 35 -120
53 -134 51 -20 -4 -22 -2 -13 12 8 12 26 18 60 19 30 0 47 -3 43 -9z m-150
-20 c-3 -5 -23 -17 -43 -26 -20 -10 -40 -19 -44 -21 -5 -2 -8 -2 -8 1 0 3 17
17 38 30 38 25 68 34 57 16z m550 -58 c28 -25 56 -42 71 -42 22 0 24 -3 24
-53 0 -30 -3 -57 -6 -60 -4 -4 -41 11 -83 32 -42 21 -89 43 -104 50 -26 10
-28 15 -22 44 4 17 13 42 20 53 11 16 11 24 2 33 -32 32 57 -19 98 -57z
m-1318 -562 c-8 -405 -13 -499 -25 -518 -8 -12 -15 -21 -16 -20 -1 2 1 244 5
538 5 432 8 540 20 562 l14 28 6 -48 c4 -26 2 -270 -4 -542z m-2257 510 c0
-29 -19 -34 -29 -8 -5 13 -7 26 -5 30 8 13 34 -4 34 -22z m3130 -31 c0 -16 9
-37 21 -47 19 -18 95 -42 147 -45 21 -2 23 -6 18 -37 -3 -19 -30 -116 -59
-215 -30 -99 -64 -225 -76 -280 -12 -55 -31 -129 -41 -165 -43 -149 -59 -209
-76 -287 l-19 -83 -38 0 c-21 0 -59 5 -83 11 -44 11 -45 13 -40 43 3 17 8 81
11 141 10 201 17 269 31 310 7 23 20 75 29 115 8 41 24 104 34 140 10 36 31
119 46 185 15 66 34 134 41 152 8 17 14 42 14 56 0 14 3 33 6 41 10 25 34 0
34 -35z m1310 31 c8 -5 11 -10 5 -10 -5 0 -17 5 -25 10 -8 5 -10 10 -5 10 6 0
17 -5 25 -10z m-11 -57 c47 -20 104 -48 126 -62 22 -14 72 -41 110 -61 39 -20
105 -58 149 -85 43 -26 92 -51 110 -54 29 -6 31 -9 34 -59 2 -42 8 -55 29 -72
l26 -21 -25 -87 c-14 -48 -47 -145 -73 -217 -26 -71 -80 -225 -120 -340 -39
-116 -78 -222 -85 -235 -18 -33 -41 -50 -61 -44 -11 3 -24 -7 -38 -28 -32 -50
-25 -17 20 97 22 57 41 116 42 131 2 28 -12 36 -115 69 -21 7 -30 -10 -75
-138 -50 -148 -113 -287 -129 -287 -8 0 -14 1 -14 3 0 9 70 199 83 223 9 17
18 44 21 59 3 15 12 49 21 76 22 67 18 80 -35 95 -51 15 -63 9 -82 -42 -6 -19
-16 -34 -20 -34 -11 0 -10 6 7 69 15 57 13 71 -10 71 -8 0 -50 16 -94 35 -43
19 -84 35 -90 35 -14 0 -57 -95 -76 -170 -31 -120 -144 -443 -160 -459 -16
-15 -17 -14 -10 19 4 19 22 80 41 135 18 55 62 186 98 290 35 105 62 193 59
197 -2 4 -26 10 -54 14 -27 4 -51 10 -54 13 -2 4 8 37 23 74 17 46 31 67 43
67 27 0 86 -24 219 -87 69 -33 159 -75 200 -92 119 -50 192 -83 228 -100 29
-14 34 -14 42 -1 5 8 7 24 4 35 -3 11 -1 32 5 45 5 14 10 18 11 10 0 -13 1
-13 10 0 6 9 5 17 -3 22 -8 5 -8 8 -1 8 6 0 12 10 12 23 1 30 87 279 94 272 7
-7 29 55 23 65 -2 4 5 40 16 80 15 50 18 75 10 83 -7 7 -14 7 -24 -1 -17 -14
-27 -6 -27 23 0 17 -11 26 -47 40 -27 10 -113 50 -193 90 -80 41 -187 91 -237
112 -51 21 -93 44 -93 51 0 18 28 82 36 82 4 0 46 -17 93 -37z m-1103 -4 c7
-12 4 -11 -35 2 -17 6 -31 15 -31 19 0 11 58 -8 66 -21z m-377 -35 c-6 -27
-13 -55 -15 -61 -5 -18 -24 -16 -24 3 0 19 41 116 47 111 2 -3 -2 -26 -8 -53z
m524 29 c8 3 23 -1 34 -8 10 -8 26 -15 36 -15 10 0 28 -9 40 -21 12 -12 30
-24 39 -28 17 -6 17 -8 0 -41 -10 -19 -26 -64 -36 -100 -10 -36 -42 -141 -71
-235 -29 -93 -60 -199 -70 -235 -35 -133 -89 -297 -121 -366 -18 -39 -37 -89
-43 -112 -11 -38 -13 -40 -39 -32 -87 28 -122 44 -114 49 6 3 12 20 15 36 3
17 10 57 16 89 11 64 55 206 76 246 7 14 16 41 20 60 4 19 10 40 14 45 3 6 6
29 7 53 2 57 36 202 46 196 4 -3 8 3 8 12 0 18 16 73 31 109 5 11 13 43 18 70
5 28 14 61 19 76 6 14 8 37 5 51 -3 16 2 36 11 50 9 12 16 36 16 52 0 28 1 28
14 11 7 -10 20 -16 29 -12z m-3357 -37 c12 -40 8 -56 -15 -56 -24 0 -51 77
-31 90 21 13 34 3 46 -34z m4587 -31 c42 -25 77 -48 77 -50 0 -8 -158 73 -165
85 -12 19 10 10 88 -35z m-3629 -30 c9 -14 15 -25 13 -25 -2 0 -14 11 -27 25
-13 14 -19 25 -13 25 6 0 18 -11 27 -25z m-173 -12 c-12 -20 -14 -14 -5 12 4
9 9 14 11 11 3 -2 0 -13 -6 -23z m3467 -52 c4 -11 -71 -228 -91 -266 -6 -11
-34 -76 -63 -145 -46 -113 -54 -125 -75 -122 -12 1 -25 5 -28 8 -8 8 15 83 84
271 36 98 75 203 86 235 l21 56 31 -13 c17 -7 33 -18 35 -24z m552 -48 c0 -3
-17 5 -37 18 -21 12 -50 29 -65 38 -16 9 -28 19 -28 23 0 4 29 -11 65 -33 36
-23 65 -43 65 -46z m-2029 12 c-22 -82 -31 -92 -17 -17 10 51 21 82 30 82 2 0
-4 -29 -13 -65z m2223 -28 c-2 -45 -47 -115 -81 -123 -38 -10 -36 0 7 43 38
39 40 43 40 104 0 63 0 63 17 39 10 -14 17 -42 17 -63z m-4969 52 c4 -6 19 -7
35 -4 29 6 146 -21 156 -36 2 -5 -8 -8 -23 -7 -15 1 -60 -2 -100 -6 -65 -6
-73 -4 -83 13 -19 36 -5 73 15 40z m1025 -17 c20 -16 21 -23 13 -62 -7 -39
-12 -45 -37 -48 -24 -3 -27 0 -24 19 2 12 -3 24 -11 27 -10 3 -12 0 -8 -12 4
-9 2 -16 -2 -16 -5 0 -12 7 -15 16 -3 8 -14 14 -23 13 -36 -3 -45 1 -39 17 4
10 -1 22 -11 30 -15 11 -16 13 -3 17 8 3 22 8 30 10 37 13 109 6 130 -11z
m3366 -35 c2 -7 -8 -44 -24 -82 -26 -64 -30 -70 -56 -68 -23 2 -26 -1 -21 -15
25 -59 12 -79 -39 -62 -39 13 -47 37 -21 64 8 8 15 21 15 30 0 8 14 53 31 99
l30 85 40 -20 c22 -10 42 -25 45 -31z m-1977 6 c-7 -10 -14 -20 -16 -22 -1 -1
-7 0 -14 4 -8 6 -4 12 12 21 32 18 34 17 18 -3z m-1615 -54 c4 -23 4 -44 2
-47 -7 -6 -26 44 -26 69 0 35 17 19 24 -22z m1863 19 c-3 -8 -6 -5 -6 6 -1 11
2 17 5 13 3 -3 4 -12 1 -19z m-2417 6 c34 -7 90 -72 90 -104 0 -17 -2 -17 -37
1 -50 25 -116 23 -215 -7 -13 -4 -18 0 -18 15 0 34 -11 50 -28 43 -15 -5 -14
-3 1 12 38 38 128 55 207 40z m4250 -9 c17 -9 30 -22 30 -29 0 -7 -24 -73 -54
-147 -80 -199 -93 -236 -118 -324 -12 -44 -23 -81 -24 -83 -2 -3 -63 25 -72
33 -2 2 24 72 58 156 34 85 72 195 85 244 23 91 51 165 61 165 3 0 18 -7 34
-15z m-1843 -47 c-3 -8 -6 -5 -6 6 -1 11 2 17 5 13 3 -3 4 -12 1 -19z m2012
-44 c2 -1 -6 -22 -17 -46 -11 -24 -55 -137 -97 -253 -43 -115 -81 -220 -86
-233 -7 -19 -12 -21 -29 -12 -25 13 -25 12 45 225 30 88 58 186 64 218 6 31
15 66 21 76 5 11 10 31 10 46 l0 25 43 -21 c23 -12 44 -23 46 -25z m-3615 -14
c8 -8 17 -32 20 -52 l7 -38 -37 22 c-29 17 -51 22 -95 20 l-58 -2 10 32 c5 18
9 35 9 37 0 11 132 -7 144 -19z m-715 -35 c47 -24 46 -43 -1 -55 -22 -7 -70
-25 -105 -41 -35 -16 -66 -29 -68 -29 -10 0 -4 22 9 35 7 8 13 24 12 36 -1 17
-10 25 -36 32 l-35 9 35 13 c49 18 155 18 189 0z m677 -50 c3 -14 10 -23 14
-20 28 17 69 -151 125 -515 8 -58 25 -138 35 -178 24 -87 25 -112 5 -112 -20
0 -19 -17 1 -28 12 -7 -3 -16 -62 -40 -43 -17 -81 -28 -84 -24 -3 4 -15 8 -27
9 -15 2 -21 -2 -17 -11 3 -8 1 -17 -5 -21 -15 -9 -26 24 -15 44 11 18 7 51 -7
51 -12 0 -12 -13 1 -28 5 -7 3 -6 -6 2 -12 10 -14 22 -9 45 7 35 17 37 57 17
15 -8 37 -12 49 -9 19 5 21 11 16 57 -3 28 -13 96 -22 151 -9 55 -18 114 -20
130 -4 35 -48 267 -70 370 -8 39 -15 85 -15 103 0 27 3 32 25 32 18 0 26 -7
31 -25z m-91 -7 c2 -13 9 -52 15 -88 14 -83 77 -397 95 -475 7 -33 17 -96 21
-139 6 -75 6 -79 -12 -71 -11 4 -24 8 -31 8 -7 0 -9 12 -6 31 3 18 -7 94 -21
171 -55 304 -97 566 -91 575 10 17 24 11 30 -12z m-1320 -8 c48 -22 85 -62 85
-92 0 -15 5 -18 23 -13 12 4 26 11 32 16 18 17 55 9 86 -19 29 -26 32 -34 33
-93 1 -62 0 -64 -24 -62 -14 1 -98 5 -187 9 -129 6 -163 4 -163 -6 0 -10 -31
-11 -147 -5 -124 5 -154 4 -185 -9 -52 -22 -72 -20 -88 9 -12 23 -11 28 11 51
29 32 94 63 130 64 21 0 28 6 32 30 11 54 115 80 177 44 29 -18 64 -13 58 9
-3 6 -14 16 -26 22 -28 12 -28 30 0 49 31 22 100 20 153 -4z m851 3 c-4 -4
-33 -13 -64 -19 -31 -7 -66 -15 -77 -19 -20 -6 -20 -6 0 6 40 25 162 53 141
32z m3802 -27 c10 -10 5 -31 -21 -106 -19 -52 -41 -112 -50 -132 -15 -36 -17
-37 -46 -27 -17 6 -31 15 -31 19 0 6 37 117 85 258 5 15 42 8 63 -12z m-3404
-8 c2 -13 9 -54 16 -93 6 -38 22 -137 35 -220 31 -192 31 -199 20 -205 -11 -6
-20 34 -40 180 -17 131 -40 279 -51 328 -4 21 -3 32 5 32 6 0 13 -10 15 -22z
m-594 -28 c-8 -5 -19 -10 -25 -10 -5 0 -3 5 5 10 8 5 20 10 25 10 6 0 3 -5 -5
-10z m117 -35 c0 -7 -6 -12 -14 -12 -7 0 -13 11 -13 24 0 19 2 21 13 11 8 -7
14 -17 14 -23z m2070 -37 c-3 -8 -6 -5 -6 6 -1 11 2 17 5 13 3 -3 4 -12 1 -19z
m-2199 -30 c5 -7 18 -40 28 -73 13 -48 18 -56 25 -40 6 16 8 14 8 -12 1 -18 9
-55 20 -82 10 -28 17 -52 15 -55 -2 -4 -1 -4 3 -1 3 3 13 -5 21 -16 12 -18 13
-23 1 -30 -11 -7 -10 -11 5 -22 12 -9 16 -19 11 -27 -6 -9 -4 -12 6 -8 12 5
15 -3 16 -34 0 -22 6 -45 13 -51 10 -9 11 -9 6 1 -4 6 -3 12 3 12 5 0 15 -16
21 -36 7 -20 26 -62 42 -93 17 -31 56 -118 89 -195 l58 -138 -40 6 c-26 4 -38
3 -34 -4 4 -6 -2 -7 -16 -1 -15 5 -36 35 -60 82 -72 144 -289 795 -273 820 7
13 20 11 32 -3z m3833 -49 c-11 -24 -20 -39 -20 -32 -1 14 31 84 36 79 2 -2
-5 -23 -16 -47z m-3704 -1 c-3 -7 -5 -2 -5 12 0 14 2 19 5 13 2 -7 2 -19 0
-25z m1034 -94 c-4 -91 -5 -101 -12 -64 -8 49 0 197 10 182 3 -6 4 -59 2 -118z
m-960 93 c-6 -8 -8 -17 -4 -20 3 -4 2 -7 -3 -7 -6 0 -16 -16 -23 -35 -21 -58
-45 -38 -29 23 7 25 12 31 21 23 9 -7 16 -5 25 10 7 10 15 19 18 19 4 0 1 -6
-5 -13z m3402 -41 c6 -16 -13 -76 -25 -76 -15 0 -19 22 -8 55 12 37 24 44 33
21z m-2205 -92 c-3 -27 -4 -26 -9 8 -3 22 -1 34 4 29 5 -5 7 -21 5 -37z m2162
-49 c0 -9 -15 -55 -34 -103 -18 -48 -53 -141 -76 -207 -76 -220 -82 -234 -96
-246 -11 -9 -14 -9 -14 1 0 21 122 383 147 438 14 29 22 60 19 68 -4 9 3 26
16 40 27 27 38 30 38 9z m-1578 -17 c-7 -7 -12 -8 -12 -2 0 14 12 26 19 19 2
-3 -1 -11 -7 -17z m288 -19 c0 -5 -4 -9 -10 -9 -5 0 -10 7 -10 16 0 8 5 12 10
9 6 -3 10 -10 10 -16z m127 -1 c-3 -8 -6 -5 -6 6 -1 11 2 17 5 13 3 -3 4 -12
1 -19z m2272 3 c57 -29 65 -43 57 -101 -8 -61 3 -64 47 -14 43 48 73 59 104
38 24 -15 25 -15 18 5 -9 30 10 27 55 -9 41 -33 63 -36 139 -19 37 8 66 7 108
-1 71 -15 83 -24 83 -62 0 -52 -29 -57 -387 -63 -175 -2 -348 -7 -385 -11 -54
-5 -68 -3 -68 7 1 8 15 64 33 124 l33 110 45 6 c74 10 79 10 118 -10z m-3483
-16 c1 -8 -3 -18 -8 -22 -6 -3 -8 -1 -4 5 3 6 2 13 -4 17 -6 4 -8 11 -4 16 7
12 17 4 20 -16z m3819 -8 c19 -14 13 -37 -9 -37 -7 0 -21 7 -32 15 -16 13 -17
16 -4 25 20 13 23 13 45 -3z m-1375 -73 c-25 -79 -28 -83 -50 -77 -33 9 -43
38 -25 73 9 16 22 30 31 30 8 0 13 4 10 9 -4 5 -3 17 0 26 6 15 9 15 26 -3 18
-18 19 -24 8 -58z m-2444 -59 c3 -59 0 -95 -6 -95 -6 0 -10 -6 -10 -14 0 -8
-5 -18 -10 -21 -14 -9 -32 43 -23 69 6 20 7 20 14 -4 7 -24 7 -24 9 5 1 17 2
57 2 90 -1 58 5 82 15 71 4 -3 8 -48 9 -101z m2603 81 c9 -11 7 -30 -9 -83
-34 -110 -31 -105 -59 -84 l-24 19 23 63 c38 105 45 114 69 85z m85 -41 c-5
-19 -2 -25 11 -25 11 0 15 -6 11 -17 -35 -126 -38 -130 -62 -119 -13 6 -24 16
-24 21 0 9 31 115 45 153 8 23 25 12 19 -13z m-3499 -24 c-3 -5 -1 -12 5 -16
5 -3 10 -12 10 -18 0 -7 -7 -3 -15 7 -18 23 -19 36 -4 36 5 0 8 -4 4 -9z m330
-105 c5 -55 4 -67 -7 -64 -8 3 -13 22 -14 50 0 25 -4 53 -7 62 -4 9 -4 23 0
32 10 26 20 -2 28 -80z m435 70 c0 -8 -4 -18 -10 -21 -5 -3 -10 3 -10 14 0 12
5 21 10 21 6 0 10 -6 10 -14z m2870 -21 c0 -9 -8 -43 -17 -75 -15 -48 -22 -60
-39 -60 -11 0 -23 3 -26 6 -7 6 37 110 54 132 14 17 28 15 28 -3z m220 -35 c0
-10 -9 -43 -21 -72 -12 -29 -30 -81 -40 -114 -25 -79 -56 -151 -71 -160 -8 -5
-9 -1 -4 12 4 10 32 94 63 187 51 153 73 198 73 147z m-660 0 c0 -26 -113
-350 -126 -361 -33 -27 -23 28 31 178 32 87 62 166 67 176 10 19 28 23 28 7z
m226 -37 c-2 -27 -16 -82 -31 -123 -15 -41 -43 -120 -62 -175 -37 -105 -61
-148 -49 -85 4 19 11 62 16 95 9 66 43 164 93 267 17 38 33 68 34 68 1 0 1
-21 -1 -47z m134 27 c0 -5 -5 -10 -11 -10 -5 0 -7 5 -4 10 3 6 8 10 11 10 2 0
4 -4 4 -10z m-1615 -15 c259 -31 427 -67 530 -115 22 -10 72 -30 112 -44 84
-30 213 -93 292 -144 138 -88 170 -110 236 -161 102 -79 199 -173 322 -311 92
-104 229 -320 284 -450 17 -41 37 -88 45 -105 19 -46 43 -145 46 -194 3 -40 0
-45 -22 -52 -14 -4 -89 -7 -168 -8 -139 -1 -144 0 -202 29 -71 36 -92 31 -158
-33 l-43 -42 -53 60 c-45 51 -64 64 -117 82 -35 12 -81 24 -103 28 -42 7 -40
0 -17 90 18 73 -29 272 -85 357 -28 43 -30 52 -10 45 11 -4 13 -1 9 10 -4 11
-2 14 5 9 7 -4 12 -15 12 -24 0 -11 7 -6 19 14 18 30 25 51 36 124 10 57 -10
21 -24 -44 -9 -38 -16 -55 -23 -48 -6 6 -4 20 6 40 21 41 21 140 -1 194 -22
56 -80 151 -152 249 l-58 78 3 66 c3 56 0 69 -21 92 -13 16 -27 24 -31 20 -5
-4 -4 -11 2 -15 6 -4 15 -16 21 -26 13 -23 -2 -76 -21 -76 -7 0 -21 -9 -30
-19 -27 -30 -72 -43 -87 -25 -6 8 -17 14 -25 14 -20 0 -24 14 -13 54 6 21 14
34 21 30 6 -4 8 1 6 12 -7 36 -23 17 -37 -41 -7 -33 -17 -68 -22 -77 -5 -10
-9 -27 -9 -38 0 -15 -7 -20 -25 -20 -14 0 -25 -5 -25 -11 0 -6 7 -8 16 -5 9 3
27 6 40 6 21 0 24 3 18 25 -7 28 19 46 39 26 16 -16 40 -14 83 6 36 18 36 18
56 -7 34 -43 170 -254 180 -280 5 -14 11 -34 12 -45 1 -11 8 -37 15 -58 15
-43 8 -97 -16 -133 -20 -31 -27 -30 -103 10 -128 67 -255 84 -397 53 l-63 -14
0 33 c0 24 -9 39 -35 63 -38 33 -75 41 -75 16 0 -9 9 -15 23 -15 58 0 76 -56
25 -74 -22 -8 -32 -6 -48 9 -11 10 -20 27 -20 38 0 25 -37 67 -58 67 -9 0 -24
8 -34 17 -18 16 -22 16 -46 2 -15 -8 -28 -24 -30 -36 -2 -15 -11 -23 -30 -25
-33 -4 -41 -32 -16 -59 16 -18 16 -20 1 -37 -10 -10 -17 -21 -17 -24 0 -3 22
-8 50 -12 27 -4 51 -10 54 -15 3 -4 -27 -25 -67 -46 -90 -47 -130 -76 -186
-137 -40 -44 -48 -48 -75 -42 -47 10 -86 33 -86 50 0 8 12 26 28 39 21 18 24
26 15 36 -10 10 -16 9 -29 -2 -14 -12 -19 -10 -41 15 -29 34 -42 28 -18 -8 12
-18 27 -26 49 -27 l31 -2 -34 -6 c-19 -3 -36 -11 -38 -17 -5 -16 66 -94 87
-94 45 0 51 -11 21 -41 -16 -16 -35 -29 -41 -29 -6 0 -10 -6 -8 -14 4 -18 -60
-116 -77 -116 -23 0 -110 40 -122 57 -20 26 -16 36 11 29 17 -4 26 -1 30 10 5
13 -1 15 -31 12 -43 -3 -49 8 -33 57 10 30 9 39 -9 68 -42 68 -62 79 -159 85
-88 5 -89 4 -175 -37 -48 -22 -97 -41 -110 -41 -36 0 -142 -74 -187 -131 -64
-81 -92 -143 -99 -224 l-6 -70 -70 -19 c-55 -15 -101 -18 -217 -17 -182 2
-220 -6 -256 -60 -22 -32 -31 -38 -52 -34 -14 3 -70 8 -125 12 -55 3 -106 10
-112 15 -7 6 -13 23 -13 39 0 36 18 48 140 92 112 41 263 114 340 167 70 48
225 215 242 261 7 18 5 21 -12 16 -19 -5 -20 0 -20 72 0 43 2 80 5 83 3 2 18
3 34 0 33 -5 44 -29 31 -70 -20 -65 -19 -86 6 -116 44 -50 74 -42 223 58 149
100 177 135 168 212 -5 50 4 69 35 69 14 0 23 6 22 15 -1 9 8 16 23 16 14 1
23 -4 23 -13 0 -8 5 -11 10 -8 6 3 10 23 10 43 0 31 -4 38 -19 38 -11 0 -25
-10 -31 -21 -13 -24 -70 -62 -70 -46 0 5 5 13 11 16 7 5 5 13 -6 25 -9 10 -19
34 -22 54 -4 24 -11 36 -22 36 -25 0 -161 33 -161 40 0 3 20 26 44 51 29 30
55 48 75 51 17 2 31 1 31 -4 0 -4 5 -8 10 -8 6 0 10 5 10 11 0 6 13 26 28 43
24 28 32 31 55 23 22 -7 32 -3 62 24 19 18 35 36 35 41 0 12 -74 10 -86 -2 -8
-8 -15 -6 -24 5 -18 22 -37 19 -56 -10 -9 -14 -25 -25 -35 -25 -11 0 -22 -7
-25 -15 -7 -16 -54 -21 -54 -6 0 5 9 13 20 16 20 6 29 45 9 45 -5 0 -8 4 -4 9
7 12 84 65 108 74 9 3 17 11 17 17 0 16 -30 12 -36 -5 -4 -8 -14 -15 -25 -15
-10 0 -24 -6 -30 -13 -7 -7 -25 -11 -41 -9 -17 3 -28 0 -28 -7 0 -7 -4 -10 -9
-7 -12 8 -95 -20 -154 -50 -27 -14 -46 -20 -42 -15 10 17 -11 13 -25 -4 -7 -8
-20 -15 -30 -15 -10 0 -21 -10 -24 -22 -6 -21 -7 -22 -17 -5 -8 14 -6 22 13
37 13 11 35 23 51 26 15 4 27 10 27 15 0 5 24 20 52 33 39 18 57 22 71 14 16
-8 18 -7 12 11 -6 19 4 27 92 67 320 149 742 213 1118 169z m1600 -72 c-2 -82
-47 -229 -78 -256 -12 -10 -22 -26 -23 -34 -3 -19 -28 -37 -32 -23 -2 4 6 26
16 47 15 30 92 259 108 321 7 27 10 9 9 -55z m-234 -19 c-12 -26 -24 -45 -27
-42 -3 4 5 30 17 59 13 29 25 47 27 41 2 -6 -6 -32 -17 -58z m777 -128 c39
-20 65 -52 106 -129 39 -73 48 -133 21 -144 -9 -3 -24 2 -35 12 -19 17 -57 14
-45 -4 3 -5 0 -13 -6 -17 -15 -9 -29 14 -29 47 0 14 -4 29 -9 35 -5 5 -11 22
-13 38 -2 16 -9 31 -16 34 -7 2 -10 -2 -6 -12 3 -8 1 -23 -5 -33 -10 -17 -10
-17 -11 0 0 10 -7 25 -15 33 -8 9 -15 24 -15 35 0 12 -10 23 -25 29 -20 8 -25
16 -25 44 0 19 6 37 13 39 25 11 89 7 115 -7z m-4742 -91 c28 -18 54 -44 54
-55 0 -13 -44 -20 -51 -8 -4 6 -12 7 -19 3 -9 -5 -23 4 -40 25 -21 26 -31 31
-46 25 -29 -12 -47 -14 -58 -7 -6 3 -27 5 -46 3 -42 -3 -37 4 16 24 46 17 157
12 190 -10z m1109 -75 c-18 -20 -45 -27 -45 -12 0 9 53 42 59 36 2 -2 -4 -13
-14 -24z m355 -1 c0 -6 7 -8 16 -5 11 4 8 -2 -7 -18 -13 -14 -26 -21 -29 -17
-3 4 -14 13 -25 19 -19 11 -19 11 3 12 12 0 22 5 22 10 0 6 5 10 10 10 6 0 10
-5 10 -11z m-1380 -86 c7 -38 21 -83 31 -102 26 -48 13 -53 -24 -10 -28 33
-32 45 -35 108 -4 90 12 92 28 4z m957 38 c-6 -16 -16 -27 -22 -25 -7 3 -44
-20 -83 -50 -72 -56 -87 -61 -54 -18 16 21 150 120 164 121 3 1 1 -12 -5 -28z
m367 -28 c-26 -19 -34 -16 -31 10 2 26 40 41 46 18 2 -8 -5 -21 -15 -28z
m3216 -13 l-7 -45 -2 55 c0 32 3 50 8 45 5 -6 5 -30 1 -55z m-3270 32 c0 -5
-7 -17 -16 -28 -8 -10 -14 -14 -11 -9 2 6 7 18 10 28 7 17 17 23 17 9z m3383
-32 c-3 -11 -8 -20 -12 -20 -4 0 -7 9 -7 20 0 11 6 20 12 20 7 0 10 -8 7 -20z
m-3623 -4 c0 -18 -27 -29 -36 -14 -4 5 0 14 7 19 20 13 29 11 29 -5z m80 4
c13 -8 13 -10 -2 -10 -9 0 -20 5 -23 10 -8 13 5 13 25 0z m-170 -50 c8 -5 11
-10 5 -10 -5 0 -17 5 -25 10 -8 5 -10 10 -5 10 6 0 17 -5 25 -10z m275 0 c3
-5 1 -10 -4 -10 -6 0 -11 5 -11 10 0 6 2 10 4 10 3 0 8 -4 11 -10z m3546 -19
c-13 -10 -32 -16 -42 -14 -13 4 -19 0 -20 -13 0 -15 -2 -15 -6 -4 -3 8 -12 19
-20 23 -21 13 -5 29 17 17 13 -7 28 -6 52 4 41 18 51 11 19 -13z m-118 -16 c4
3 5 2 2 -2 -13 -17 -35 -10 -35 10 1 20 2 21 14 5 7 -10 16 -16 19 -13z m236
0 c39 -20 98 -91 106 -127 9 -41 -1 -46 -20 -9 -20 39 -84 82 -127 86 -38 3
-46 19 -22 46 21 23 27 23 63 4z m-3699 1 c0 -3 -4 -8 -10 -11 -5 -3 -10 -1
-10 4 0 6 5 11 10 11 6 0 10 -2 10 -4z m-410 -22 c0 -2 -7 -4 -15 -4 -8 0 -15
4 -15 10 0 5 7 7 15 4 8 -4 15 -8 15 -10z m585 -20 c11 -8 34 -14 51 -14 55 0
64 -21 65 -155 1 -138 16 -113 -142 -226 -120 -85 -137 -90 -165 -46 l-21 33
38 53 c42 59 65 139 55 194 -7 39 -41 87 -61 87 -19 0 -28 31 -13 46 7 7 35
21 61 32 52 20 99 18 132 -4z m3222 4 c-3 -8 -6 -5 -6 6 -1 11 2 17 5 13 3 -3
4 -12 1 -19z m-4298 -16 c14 -10 26 -25 28 -33 3 -9 -1 -8 -10 4 -8 10 -19 17
-23 15 -5 -1 -19 3 -31 10 -15 8 -35 9 -69 3 -62 -12 -82 -1 -29 16 49 15 102
10 134 -15z m437 -7 c-3 -8 -15 -15 -26 -15 -22 0 -52 -26 -70 -60 -7 -13 -17
-19 -26 -16 -8 3 -13 2 -10 -2 6 -9 -21 -35 -46 -45 -34 -12 -5 19 85 95 84
71 108 82 93 43z m3919 25 c-3 -5 -14 -10 -23 -10 -15 0 -15 2 -2 10 20 13 33
13 25 0z m648 -35 c31 -23 62 -76 83 -144 18 -58 18 -113 2 -110 -7 1 -21 -1
-30 -5 -22 -10 -64 21 -77 56 -11 29 -6 38 20 38 15 0 17 5 11 23 -5 12 -7 35
-6 50 3 26 1 28 -29 25 -28 -3 -32 0 -30 20 2 16 -2 22 -17 22 -10 0 -22 5
-26 11 -8 14 -87 3 -126 -17 -18 -9 -28 -11 -28 -4 0 6 24 22 53 36 64 31 156
30 200 -1z m-4292 -22 c-12 -20 -14 -14 -5 12 4 9 9 14 11 11 3 -2 0 -13 -6
-23z m3729 3 c0 -2 -7 -7 -16 -10 -8 -3 -12 -2 -9 4 6 10 25 14 25 6z m-4431
-48 c1 -5 -3 -8 -9 -8 -5 0 -10 12 -9 28 0 24 1 25 9 7 5 -11 9 -23 9 -27z
m567 -3 c-8 -23 -25 -9 -19 16 4 13 9 17 16 10 5 -5 7 -17 3 -26z m54 31 c0
-3 -4 -8 -10 -11 -5 -3 -10 -1 -10 4 0 6 5 11 10 11 6 0 10 -2 10 -4z m42 -11
c0 -5 -5 -11 -11 -13 -6 -2 -11 4 -11 13 0 9 5 15 11 13 6 -2 11 -8 11 -13z
m98 -21 c0 -8 -5 -12 -10 -9 -6 4 -8 11 -5 16 9 14 15 11 15 -7z m4120 12 c0
-3 -4 -8 -10 -11 -5 -3 -10 -1 -10 4 0 6 5 11 10 11 6 0 10 -2 10 -4z m40 -17
c0 -11 -4 -18 -10 -14 -5 3 -7 12 -3 20 7 21 13 19 13 -6z m-4110 -9 c0 -5 -2
-10 -4 -10 -3 0 -8 5 -11 10 -3 6 -1 10 4 10 6 0 11 -4 11 -10z m-40 -25 c0
-8 -4 -15 -10 -15 -5 0 -7 7 -4 15 4 8 8 15 10 15 2 0 4 -7 4 -15z m4164 -36
c-8 -13 -24 -1 -24 18 0 13 3 13 15 3 8 -7 12 -16 9 -21z m-4281 -21 c25 -39
-53 -169 -175 -289 -91 -90 -258 -167 -530 -244 -67 -19 -98 -32 -98 -42 0 -8
-48 -121 -106 -252 -132 -291 -160 -362 -213 -523 -49 -152 -74 -257 -95 -399
-18 -123 -21 -391 -5 -438 6 -17 8 -43 5 -56 -13 -53 -112 -21 -160 52 -39 59
-57 149 -57 281 -1 285 90 595 306 1053 53 112 99 210 102 217 8 19 -20 14
-89 -15 -109 -47 -179 -93 -266 -177 -105 -101 -154 -172 -188 -273 -25 -73
-26 -85 -20 -199 7 -133 5 -137 -49 -123 -85 23 -185 171 -185 274 0 115 71
246 201 371 149 142 282 218 574 327 22 8 132 40 245 72 459 127 490 141 650
306 73 76 100 98 119 96 13 -1 29 -9 34 -19z m107 7 c0 -8 -2 -15 -4 -15 -2 0
-6 7 -10 15 -3 8 -1 15 4 15 6 0 10 -7 10 -15z m57 -17 c-3 -7 -5 -2 -5 12 0
14 2 19 5 13 2 -7 2 -19 0 -25z m1543 22 c0 -5 -12 -10 -26 -10 -14 0 -23 4
-19 10 3 6 15 10 26 10 10 0 19 -4 19 -10z m-3049 -20 c13 -10 19 -19 13 -20
-7 0 -22 9 -35 20 -13 10 -19 19 -13 20 7 0 22 -9 35 -20z m889 -5 c0 -8 -4
-15 -10 -15 -5 0 -10 7 -10 15 0 8 5 15 10 15 6 0 10 -7 10 -15z m587 -7 c-3
-8 -6 -5 -6 6 -1 11 2 17 5 13 3 -3 4 -12 1 -19z m1513 -28 c12 -8 11 -10 -7
-10 -12 0 -25 5 -28 10 -8 13 15 13 35 0z m592 -48 c69 -24 135 -71 178 -124
29 -35 32 -45 32 -109 0 -50 -6 -81 -22 -114 -43 -89 -154 -159 -270 -171 -64
-6 -174 9 -184 25 -3 4 24 26 58 49 109 72 186 173 186 244 0 9 -10 28 -22 43
-20 26 -25 27 -86 22 -184 -15 -400 -211 -545 -495 -30 -59 -67 -145 -83 -192
-24 -74 -28 -101 -28 -215 -1 -119 1 -134 22 -171 31 -54 67 -74 133 -74 124
0 176 56 295 318 l34 75 -32 -7 c-18 -3 -46 -19 -63 -36 -37 -35 -75 -46 -107
-29 -30 16 -38 28 -38 62 0 61 63 131 155 173 93 43 275 44 316 3 25 -25 25
-80 -1 -127 -24 -43 -58 -122 -89 -207 -13 -33 -38 -95 -57 -137 -34 -76 -40
-98 -28 -98 13 0 220 61 234 69 11 6 14 26 11 92 -7 203 102 406 255 476 46
21 66 25 109 20 102 -10 167 -61 190 -148 50 -188 -52 -327 -286 -387 -84 -22
-90 -31 -60 -89 27 -54 79 -99 128 -114 36 -10 49 -9 88 6 26 9 62 33 81 51
l34 35 30 -22 c16 -13 32 -21 34 -18 2 2 9 42 16 89 9 68 72 406 95 506 3 12
12 25 21 28 20 8 85 -35 114 -73 l19 -26 16 23 c9 12 27 22 40 22 13 0 34 4
47 9 14 5 56 6 96 1 82 -9 125 -35 170 -103 24 -37 27 -49 26 -126 -2 -88 -19
-171 -75 -352 -16 -53 -29 -108 -29 -121 0 -38 20 -50 54 -33 16 8 37 15 47
15 11 0 31 7 44 16 27 17 32 37 65 254 12 74 27 160 35 190 7 31 19 93 25 140
6 46 14 88 17 93 9 15 140 1 169 -18 22 -14 25 -22 20 -48 -70 -372 -99 -567
-89 -593 15 -38 72 -16 157 62 l67 61 -10 65 c-32 195 69 426 214 494 97 46
214 23 273 -53 21 -29 27 -49 30 -104 2 -38 1 -80 -2 -94 -9 -35 -60 -90 -126
-135 -31 -21 -62 -45 -69 -54 -8 -9 -33 -21 -57 -27 -24 -6 -47 -16 -52 -23
-16 -20 -1 -83 30 -120 59 -71 132 -37 272 129 l25 30 1 -70 c0 -108 -55 -205
-133 -234 -16 -6 -60 -11 -98 -11 -87 0 -141 24 -204 91 -25 27 -50 49 -55 49
-5 0 -16 -12 -24 -28 -20 -39 -117 -128 -157 -145 -92 -38 -169 -27 -219 30
-17 19 -30 39 -30 46 0 6 -26 -14 -57 -45 -65 -63 -108 -88 -152 -88 -36 0
-150 75 -168 111 -20 39 -16 184 7 259 36 116 71 242 79 286 12 63 -6 84 -69
84 -42 0 -52 -4 -78 -34 -70 -79 -146 -392 -155 -636 -2 -64 -3 -65 -31 -68
-42 -5 -111 25 -141 59 -21 25 -25 41 -25 92 l0 61 -37 -36 c-68 -65 -176 -84
-298 -53 -60 16 -157 74 -175 104 -32 55 -29 54 -136 12 -55 -21 -138 -49
-185 -62 l-87 -24 -52 -110 c-133 -281 -139 -292 -204 -352 -88 -82 -143 -108
-231 -108 -82 0 -126 24 -150 82 -69 165 116 385 401 478 46 15 52 20 72 67
12 29 20 53 18 55 -1 2 -29 -9 -62 -24 -131 -60 -316 -41 -391 39 -12 13 -36
48 -52 77 l-29 54 -22 -44 c-102 -201 -258 -290 -352 -201 -75 70 -68 213 23
471 23 64 50 133 60 153 11 21 19 39 19 42 0 2 -34 24 -76 48 -194 111 -257
170 -270 254 -8 54 19 158 53 202 33 44 94 72 160 72 44 0 58 -5 85 -29 28
-25 33 -36 32 -73 -1 -24 -16 -86 -33 -138 -17 -52 -31 -101 -31 -110 0 -9 44
-37 115 -73 64 -32 120 -68 126 -79 20 -37 3 -137 -51 -298 -79 -237 -107
-370 -78 -370 21 0 117 80 146 122 56 82 72 124 72 187 0 271 204 679 456 909
163 150 396 208 576 144z m2318 -22 c34 -36 63 -116 58 -162 -3 -38 -31 -46
-36 -11 -4 26 -51 63 -79 63 -14 0 -15 -2 -4 -9 23 -15 -3 -20 -55 -12 -27 5
-40 9 -29 10 20 2 20 2 1 16 -11 8 -29 15 -40 15 -19 0 -18 2 4 13 14 7 34 27
45 44 11 18 25 32 31 33 6 0 17 7 24 15 19 23 49 18 80 -15z m-448 -102 c-8
-8 -18 -8 -34 -1 -21 9 -20 10 11 11 25 0 31 -2 23 -10z m173 -18 c3 -5 -1
-10 -9 -10 -8 0 -18 5 -21 10 -3 6 1 10 9 10 8 0 18 -4 21 -10z m-5395 -110
c-20 -13 -47 -13 -55 0 -4 6 9 10 32 10 28 0 34 -3 23 -10z m5023 -142 c26
-13 67 -106 67 -150 0 -40 -8 -46 -39 -26 -16 10 -26 7 -59 -16 -71 -49 -129
-17 -139 76 -12 104 78 165 170 116z m-3410 -307 c5 -5 -10 -64 -32 -132 -129
-400 -158 -559 -102 -559 24 0 39 18 99 117 77 128 176 362 212 503 l16 65 43
3 c24 2 48 -1 52 -5 11 -11 -141 -404 -211 -545 -62 -125 -107 -188 -162 -228
-69 -50 -149 -36 -208 39 l-33 40 -29 -44 c-49 -74 -139 -135 -200 -135 -78 0
-144 82 -158 198 -7 55 -5 85 15 172 42 187 142 464 174 485 16 9 152 -26 158
-41 2 -7 -27 -109 -66 -227 -66 -204 -101 -338 -101 -390 0 -14 8 -35 19 -48
18 -23 19 -23 47 -4 53 34 88 96 128 225 14 47 57 182 94 300 l69 215 49 6
c54 7 114 2 127 -10z m-913 -107 c98 -29 134 -85 146 -229 8 -93 -21 -208 -85
-340 -58 -117 -115 -181 -204 -225 -140 -70 -287 -16 -348 128 -53 124 7 359
137 531 103 137 210 178 354 135z m1045 -820 c65 -64 139 -96 229 -98 l71 -1
9 -43 c6 -23 13 -42 18 -42 14 0 9 55 -8 78 -9 13 -14 25 -12 27 11 11 155 75
169 75 9 0 27 -8 39 -18 21 -17 22 -20 7 -48 -9 -16 -34 -48 -57 -72 -29 -30
-39 -49 -35 -62 3 -10 1 -46 -4 -80 -6 -33 -6 -71 -2 -83 5 -12 17 -49 27 -82
39 -124 145 -183 314 -173 105 6 183 44 267 130 80 81 112 126 168 237 l45 91
79 0 c108 0 111 -2 111 -64 0 -34 15 -96 46 -186 25 -74 50 -169 56 -210 10
-74 10 -77 -20 -137 -31 -61 -47 -73 -101 -73 -38 0 -108 -46 -140 -93 -32
-47 -51 -104 -51 -156 0 -32 -1 -33 -23 -18 -12 8 -48 23 -79 32 -54 17 -59
17 -130 0 -55 -13 -85 -27 -120 -57 -46 -38 -47 -39 -52 -16 -15 72 -26 162
-26 216 0 56 -2 62 -20 62 -29 0 -60 -70 -60 -138 0 -52 33 -185 52 -209 6 -8
2 -22 -13 -43 -19 -25 -28 -30 -51 -25 -29 7 -36 -3 -16 -23 9 -9 7 -16 -7
-32 -28 -31 -41 -24 -71 38 -25 54 -27 66 -28 212 l-1 155 -37 76 c-28 57 -47
82 -77 102 -22 15 -45 27 -50 27 -5 0 -19 11 -32 24 -13 13 -28 22 -35 19 -7
-2 -15 0 -19 6 -3 6 -14 11 -24 11 -10 0 -32 7 -49 15 -36 19 -164 41 -283 50
-113 9 -139 25 -166 101 -42 120 -73 222 -73 240 0 13 23 34 69 62 38 23 77
55 88 70 29 44 61 124 58 149 -1 13 -1 23 1 23 2 0 24 -21 49 -46z m3051 -331
c-10 -241 -33 -337 -131 -538 -41 -85 -78 -167 -86 -191 -7 -20 -500 -494
-514 -494 -8 0 -17 5 -20 11 -5 7 -13 5 -25 -6 -10 -9 -44 -22 -77 -30 -66
-15 -189 -68 -216 -93 -10 -9 -25 -31 -34 -50 -14 -29 -14 -35 -2 -43 25 -15
36 -10 53 25 18 39 40 60 58 54 7 -3 28 6 47 19 18 13 41 23 50 23 10 0 22 5
27 10 7 7 19 7 34 2 23 -8 20 -12 -51 -64 -76 -56 -345 -238 -352 -238 -3 0
-7 17 -11 38 -3 21 -15 47 -26 57 -26 24 -25 45 2 45 29 0 108 30 108 41 0 5
-12 11 -27 15 -85 18 -123 29 -123 35 0 3 18 9 39 13 56 9 96 47 121 114 19
50 20 63 11 108 -12 52 -83 152 -109 153 -7 1 -15 8 -18 16 -4 8 -17 15 -30
15 -18 0 -25 7 -29 28 -21 96 -38 132 -84 175 -55 52 -73 62 -123 71 -34 6
-54 26 -41 40 11 11 69 6 81 -6 10 -10 15 -10 22 2 7 11 5 19 -7 27 -9 7 -13
16 -10 20 4 4 13 1 19 -5 17 -17 55 -15 61 2 4 10 1 13 -9 9 -7 -3 -14 0 -14
6 0 16 28 13 37 -4 12 -21 53 -7 64 22 7 20 14 24 34 19 33 -9 74 13 82 43 l6
25 9 -23 c10 -27 32 -23 36 7 2 12 12 27 23 32 10 6 19 17 19 24 0 7 8 28 17
47 10 19 18 45 19 59 3 33 10 81 23 163 6 38 9 72 6 77 -3 5 0 12 6 15 5 4 8
12 6 19 -3 6 1 20 8 30 8 10 11 24 8 32 -3 8 1 14 10 14 9 0 20 6 24 13 12 19
50 37 78 37 14 0 25 6 25 13 0 11 25 13 123 10 67 -1 140 -5 162 -9 72 -10
297 -3 368 12 39 8 78 12 87 9 10 -3 23 1 30 10 7 8 20 15 29 15 9 1 32 9 51
20 19 11 39 19 44 20 5 0 6 -70 2 -167z m-1258 151 l91 -7 20 -46 c23 -54 41
-174 41 -270 0 -102 -63 -243 -128 -285 -45 -30 -139 -58 -195 -58 -50 -1
-107 11 -107 21 0 5 14 38 30 75 l30 66 -29 112 c-17 62 -44 152 -61 200 -28
82 -40 175 -23 191 8 9 212 9 331 1z m-2548 -42 c0 -13 -12 -22 -22 -16 -10 6
-1 24 13 24 5 0 9 -4 9 -8z m49 -99 c1 -43 -13 -59 -22 -25 -4 13 -5 11 -6 -5
-1 -27 -7 -28 -27 -9 -9 10 -11 17 -4 21 6 4 8 24 6 46 -6 46 9 53 19 8 9 -40
19 -29 18 19 -1 32 0 34 7 12 4 -14 8 -44 9 -67z m280 -26 c65 -259 92 -319
169 -368 72 -46 138 -61 235 -55 45 3 94 6 108 7 42 3 208 -86 251 -134 57
-64 76 -111 97 -247 27 -179 30 -220 17 -263 l-11 -39 -73 91 c-123 154 -232
225 -459 297 -97 31 -151 54 -204 89 -131 88 -273 250 -299 343 -15 57 -49
250 -54 314 l-4 57 102 0 102 0 23 -92z m-708 -187 c24 -13 25 -52 2 -73 -49
-43 -100 -12 -87 52 6 26 11 31 36 31 16 0 38 -5 49 -10z m-440 -264 c51 -21
87 -54 110 -97 11 -22 24 -37 29 -34 5 3 17 1 27 -4 10 -6 39 -19 65 -30 41
-17 88 -64 77 -76 -3 -2 -24 12 -48 31 -25 19 -61 37 -83 40 -43 7 -72 29 -82
60 -8 26 -81 79 -95 69 -6 -3 -11 -1 -11 4 0 6 -10 11 -22 11 -26 1 -61 24
-51 33 11 11 48 8 84 -7z m-463 -18 c-2 -7 5 -13 15 -13 10 0 21 -5 25 -10 4
-6 14 -11 22 -13 41 -8 93 -102 56 -102 -9 0 -12 -7 -9 -20 3 -11 1 -20 -3
-20 -12 1 -55 70 -44 70 6 0 10 7 10 15 0 8 5 15 10 15 6 0 10 5 10 11 0 5 -5
7 -12 3 -6 -4 -8 -3 -5 3 4 6 0 14 -9 17 -12 4 -15 2 -10 -9 3 -8 3 -22 0 -30
-5 -12 -10 -13 -20 -4 -11 9 -14 8 -14 -5 0 -9 -4 -16 -10 -16 -5 0 -10 5 -10
11 0 6 -7 9 -15 5 -8 -3 -15 -1 -15 5 0 6 -4 7 -10 4 -5 -3 -10 -2 -10 4 0 5
-3 18 -6 28 -5 13 -2 12 10 -4 17 -22 44 -33 31 -13 -3 5 0 7 8 4 8 -3 19 2
26 10 10 12 9 17 -8 25 -11 6 -29 11 -40 11 -21 0 -27 11 -14 23 11 12 43 7
41 -5z m372 -13 c0 -15 -24 -53 -31 -49 -5 3 -9 0 -9 -5 0 -6 5 -11 11 -11 5
0 7 -4 4 -10 -9 -15 -25 -12 -25 5 0 22 29 75 40 75 6 0 10 -2 10 -5z m50 -45
c0 -5 -2 -10 -4 -10 -3 0 -8 5 -11 10 -3 6 -1 10 4 10 6 0 11 -4 11 -10z
m-478 -62 c2 -20 0 -34 -4 -32 -4 3 -8 24 -7 47 1 47 6 41 11 -15z m3458 18
c0 -3 -4 -8 -10 -11 -5 -3 -10 -1 -10 4 0 6 5 11 10 11 6 0 10 -2 10 -4z
m-3420 -31 c0 -8 -4 -15 -10 -15 -5 0 -10 7 -10 15 0 8 5 15 10 15 6 0 10 -7
10 -15z m180 5 c0 -5 -4 -10 -10 -10 -5 0 -10 5 -10 10 0 6 5 10 10 10 6 0 10
-4 10 -10z m3410 0 c0 -5 -4 -10 -10 -10 -5 0 -10 5 -10 10 0 6 5 10 10 10 6
0 10 -4 10 -10z m-3515 -21 c-4 -13 0 -27 11 -40 25 -27 10 -24 -22 6 -22 21
-25 27 -14 40 18 22 32 18 25 -6z m89 -14 c-4 -8 -11 -15 -16 -15 -6 0 -5 6 2
15 7 8 14 15 16 15 2 0 1 -7 -2 -15z m-123 -82 c-9 -17 -10 -17 -16 0 -4 9 -4
25 0 35 6 16 7 16 16 0 7 -12 7 -24 0 -35z m124 37 c-4 -6 -10 -8 -15 -5 -4 3
-10 -1 -13 -7 -2 -7 -8 -9 -13 -5 -5 4 -2 12 6 17 20 13 43 13 35 0z m5055
-57 c36 -23 99 -99 116 -140 8 -17 18 -34 22 -37 12 -7 34 -115 30 -146 -4
-32 23 -34 37 -3 7 16 21 23 57 28 41 6 55 3 93 -19 36 -21 45 -33 51 -64 10
-48 8 -102 -3 -113 -19 -19 -1143 -13 -1143 6 0 1 73 75 163 163 172 171 265
251 362 315 58 38 62 39 124 33 35 -3 76 -13 91 -23z m-5106 -9 c8 -22 8 -24
-6 -21 -17 3 -28 19 -22 29 8 13 21 9 28 -8z m60 -9 c-4 -8 -10 -12 -15 -9
-14 8 -10 24 6 24 9 0 12 -6 9 -15z m3342 -12 c-7 -7 -26 7 -26 19 0 6 6 6 15
-2 9 -7 13 -15 11 -17z m104 6 c75 -46 116 -103 105 -146 -5 -20 -8 -23 -20
-13 -8 7 -15 18 -15 24 0 17 -102 123 -135 140 l-30 15 30 1 c17 0 46 -10 65
-21z m-358 -41 c15 -10 28 -22 29 -26 0 -4 3 -18 5 -31 l4 -25 -23 22 c-14 14
-36 22 -57 22 -18 0 -30 -3 -27 -7 4 -3 1 -13 -5 -21 -7 -8 -13 -22 -13 -31 0
-9 -6 -16 -13 -16 -7 0 -17 -7 -22 -15 -7 -11 -10 -11 -10 -2 0 7 -4 11 -9 7
-19 -11 -19 12 0 28 21 18 25 42 9 52 -6 3 -15 -6 -20 -20 -7 -19 -16 -26 -32
-23 -34 5 -31 23 7 41 28 13 41 15 57 6 18 -10 20 -9 14 6 -4 13 -2 16 9 11 8
-3 15 0 15 6 0 9 3 9 12 0 20 -20 29 -13 11 8 -10 11 -26 20 -36 20 -11 0 -15
5 -11 11 9 15 72 2 106 -23z m-2309 -68 c47 -41 60 -77 55 -155 -3 -56 -2 -65
12 -59 31 12 80 16 114 10 70 -13 138 -111 90 -130 -25 -10 -32 -7 -39 13 -8
27 -53 40 -165 47 -52 3 -104 7 -116 7 -17 2 -19 5 -10 20 7 11 23 17 47 17
33 0 37 3 43 30 7 39 -1 84 -26 138 -25 52 -34 57 -79 39 -18 -8 -42 -12 -52
-8 -17 6 -16 8 5 28 46 41 77 42 121 3z m2372 -49 c3 -5 -3 -17 -12 -27 -13
-12 -14 -19 -5 -22 16 -5 15 -27 -2 -41 -10 -9 -16 -9 -21 -1 -5 8 -11 8 -21
-1 -14 -11 -15 -10 -18 14 -1 6 -12 11 -25 9 -18 -2 -22 2 -17 14 3 8 6 22 6
31 0 8 6 13 13 10 7 -3 26 1 42 8 37 16 52 18 60 6z m-130 -31 c-3 -5 -16 -10
-28 -10 -18 0 -19 2 -7 10 20 13 43 13 35 0z m-2382 -40 c-3 -11 -9 -17 -15
-14 -5 3 -4 12 3 20 16 19 18 18 12 -6z m2952 -30 c-3 -5 -10 -10 -16 -10 -5
0 -9 5 -9 10 0 6 7 10 16 10 8 0 12 -4 9 -10z m-298 -42 c-3 -8 -6 -5 -6 6 -1
11 2 17 5 13 3 -3 4 -12 1 -19z m323 -14 c0 -15 -43 -37 -65 -32 -18 3 -18 4
-1 21 10 10 16 24 13 31 -5 11 0 12 24 3 16 -6 29 -16 29 -23z m-3615 -103 c3
-5 1 -12 -5 -16 -5 -3 -10 1 -10 9 0 18 6 21 15 7z m3630 -205 c46 -19 45 -42
-1 -49 -19 -3 -51 -20 -70 -36 -19 -17 -38 -31 -42 -31 -9 0 -32 59 -32 83 0
20 46 46 83 47 15 0 43 -7 62 -14z"/>
<path d="M6056 8361 c-3 -5 1 -11 9 -15 8 -3 15 -1 15 4 0 13 -18 22 -24 11z"/>
<path d="M6167 8354 c-4 -4 -7 -17 -7 -28 1 -19 1 -20 11 -3 11 19 8 43 -4 31z"/>
<path d="M7357 8174 c2 -6 16 -9 31 -6 19 2 35 -4 54 -21 27 -25 38 -25 38 0
0 7 -6 13 -14 13 -8 0 -17 7 -20 15 -4 12 -17 15 -50 13 -26 -2 -42 -7 -39
-14z"/>
<path d="M7396 8111 c-7 -11 22 -23 36 -15 6 4 5 10 -3 15 -18 11 -26 11 -33
0z"/>
<path d="M7602 7961 c14 -23 24 -26 33 -10 8 13 6 15 -23 24 -22 6 -22 5 -10
-14z"/>
<path d="M6197 7943 c-12 -11 -8 -23 8 -23 8 0 15 7 15 15 0 16 -12 20 -23 8z"/>
<path d="M3858 7090 c-3 -19 -2 -42 2 -50 8 -14 13 -48 49 -319 10 -80 21
-126 29 -129 15 -5 13 12 -29 243 -16 88 -32 189 -37 225 -7 58 -9 61 -14 30z"/>
<path d="M3340 6358 c0 -12 3 -18 7 -14 11 10 12 36 2 36 -5 0 -9 -10 -9 -22z"/>
<path d="M4960 6661 c0 -19 -40 -34 -56 -20 -11 9 -17 9 -29 -1 -19 -16 -19
-43 0 -81 13 -25 19 -28 35 -19 12 6 20 21 20 36 0 16 5 24 13 21 6 -2 12 -17
12 -33 0 -19 5 -28 14 -26 7 1 19 -2 27 -9 22 -18 44 -3 44 31 0 23 -10 42
-40 71 -22 22 -40 35 -40 30z"/>
<path d="M5575 6640 c-3 -5 -3 -21 1 -35 5 -20 11 -24 26 -20 16 6 18 3 12
-19 -9 -38 10 -32 24 7 18 51 16 70 -8 62 -11 -4 -20 -2 -20 4 0 14 -27 14
-35 1z"/>
<path d="M4600 6626 c0 -9 7 -16 16 -16 17 0 14 22 -4 28 -7 2 -12 -3 -12 -12z"/>
<path d="M4712 6628 c-39 -39 17 -100 58 -63 11 10 20 24 20 30 0 27 -59 52
-78 33z"/>
<path d="M5140 6591 c0 -22 4 -31 13 -28 13 4 11 36 -4 52 -5 5 -9 -4 -9 -24z"/>
<path d="M4810 6545 c-7 -9 -10 -18 -6 -22 8 -9 56 14 56 27 0 15 -36 12 -50
-5z"/>
<path d="M5256 6528 c-3 -13 -1 -27 4 -32 7 -7 10 1 10 22 0 37 -5 41 -14 10z"/>
<path d="M5378 6518 c-20 -41 -23 -58 -8 -58 15 0 31 39 28 68 -3 27 -3 27
-20 -10z"/>
<path d="M5441 6534 c0 -11 3 -14 6 -6 3 7 2 16 -1 19 -3 4 -6 -2 -5 -13z"/>
<path d="M4695 6520 c7 -23 6 -24 -29 -10 -20 7 -26 6 -26 -4 0 -8 -6 -16 -13
-19 -8 -3 -11 -19 -9 -47 4 -42 4 -42 39 -35 21 4 40 2 48 -5 11 -9 17 -5 30
19 18 36 36 41 27 9 -4 -17 -2 -20 11 -15 9 3 19 2 22 -3 11 -18 25 -10 25 13
0 33 -24 72 -41 69 -9 -1 -26 9 -39 23 -29 31 -54 34 -45 5z"/>
<path d="M4870 6495 c0 -7 5 -15 11 -17 6 -2 2 -14 -10 -30 -12 -14 -21 -35
-21 -46 0 -34 -11 -52 -32 -52 -17 0 -19 -5 -14 -25 4 -14 2 -25 -4 -25 -5 0
-10 -8 -10 -19 0 -13 -18 -28 -54 -46 -30 -15 -57 -34 -60 -42 -9 -23 21 -26
66 -5 82 38 96 42 102 29 3 -9 7 -8 14 2 8 11 25 13 72 8 61 -5 62 -5 56 19
-5 20 -3 24 15 24 26 0 89 45 89 64 0 18 -55 14 -78 -6 -9 -9 -28 -19 -42 -22
-21 -6 -23 -5 -10 6 27 23 42 63 38 104 l-3 39 -52 -1 c-29 -1 -53 2 -53 7 0
5 5 9 10 9 19 0 10 28 -10 33 -13 3 -20 0 -20 -8z"/>
<path d="M5773 6471 c-3 -12 -9 -21 -14 -21 -5 0 -9 -5 -9 -12 0 -9 3 -9 11
-1 6 6 18 9 25 6 9 -3 14 2 14 15 0 29 -20 38 -27 13z"/>
<path d="M5077 6463 c-11 -10 -8 -53 3 -53 6 0 10 14 10 30 0 31 -2 35 -13 23z"/>
<path d="M5687 6463 c-18 -5 -18 -6 -1 -24 14 -15 15 -21 4 -34 -9 -11 -10
-19 -2 -27 7 -7 13 1 21 28 6 22 11 45 11 52 0 12 -3 13 -33 5z"/>
<path d="M5680 6345 c0 -8 7 -15 15 -15 8 0 15 4 15 9 0 5 -7 11 -15 15 -9 3
-15 0 -15 -9z"/>
<path d="M5731 6307 c-26 -26 1 -37 34 -14 17 13 17 14 -3 19 -11 3 -25 1 -31
-5z"/>
<path d="M4267 6244 c-3 -3 3 -15 13 -26 18 -20 19 -20 37 -2 17 17 17 17 1
11 -12 -4 -18 -2 -18 8 0 15 -21 21 -33 9z"/>
<path d="M4455 6199 c-5 -14 -2 -25 6 -30 15 -9 4 -13 -31 -10 -11 0 -11 -1
-2 -5 10 -5 10 -9 1 -20 -9 -11 -8 -14 5 -14 13 0 17 -7 14 -27 -5 -43 21 -40
39 6 9 23 22 41 30 41 19 0 16 44 -5 63 -25 23 -49 21 -57 -4z"/>
<path d="M5581 6188 c-28 -28 -32 -30 -27 -11 9 29 -7 37 -28 14 -34 -38 17
-75 60 -43 19 14 44 52 44 67 0 13 -19 2 -49 -27z"/>
<path d="M4386 6154 c-9 -23 -7 -44 3 -44 5 0 9 14 9 30 -1 34 -3 37 -12 14z"/>
<path d="M5210 6100 c-13 -8 -12 -10 3 -10 9 0 17 5 17 10 0 12 -1 12 -20 0z"/>
<path d="M4590 6035 c-10 -18 -19 -24 -33 -19 -27 8 -71 -34 -55 -53 6 -7 7
-17 3 -21 -4 -4 -10 -1 -12 6 -8 22 -49 12 -86 -22 -38 -35 -48 -71 -25 -94
18 -18 38 -15 107 21 60 30 65 36 75 77 6 24 17 45 24 46 7 1 8 0 2 -3 -17 -8
-11 -23 9 -23 28 0 32 11 25 64 -8 52 -15 57 -34 21z m-156 -150 c-19 -29 -29
-27 -19 4 3 12 13 21 21 21 12 0 12 -4 -2 -25z"/>
<path d="M6311 5954 c0 -11 3 -14 6 -6 3 7 2 16 -1 19 -3 4 -6 -2 -5 -13z"/>
<path d="M4632 5908 c-20 -20 -14 -38 12 -38 24 0 41 23 30 41 -7 13 -28 11
-42 -3z"/>
<path d="M6766 5901 c-3 -5 1 -12 10 -15 20 -8 29 -1 19 13 -8 13 -22 14 -29
2z"/>
<path d="M6780 5849 c0 -13 41 -22 52 -11 6 6 -1 11 -21 14 -17 3 -31 1 -31
-3z"/>
<path d="M4849 5780 c-18 -12 -10 -18 31 -26 24 -5 32 -4 28 6 -6 18 -42 30
-59 20z"/>
<path d="M4947 5784 c-3 -3 15 -17 40 -30 52 -28 63 -27 30 3 -24 23 -60 37
-70 27z"/>
<path d="M5094 5666 c22 -18 56 -21 56 -6 0 6 -9 10 -19 10 -11 0 -28 3 -38 6
-16 5 -16 4 1 -10z"/>
<path d="M6975 5430 c3 -5 10 -10 16 -10 5 0 9 5 9 10 0 6 -7 10 -16 10 -8 0
-12 -4 -9 -10z"/>
<path d="M7010 5380 c0 -5 6 -10 14 -10 8 0 18 5 21 10 3 6 -3 10 -14 10 -12
0 -21 -4 -21 -10z"/>
<path d="M7075 5310 c-3 -5 1 -10 9 -10 9 0 16 5 16 10 0 6 -4 10 -9 10 -6 0
-13 -4 -16 -10z"/>
<path d="M7075 5261 c-3 -5 -1 -12 5 -16 5 -3 10 1 10 9 0 18 -6 21 -15 7z"/>
<path d="M8140 5942 c0 -17 12 -42 20 -42 12 0 6 43 -7 48 -7 2 -13 -1 -13 -6z"/>
<path d="M6335 5028 c-20 -24 -49 -70 -65 -103 -31 -65 -66 -192 -56 -202 8
-9 75 13 114 37 45 28 114 174 114 242 0 58 -6 68 -42 68 -21 0 -38 -11 -65
-42z"/>
<path d="M8125 4982 c-61 -13 -123 -102 -146 -210 -16 -79 -9 -88 48 -58 58
29 71 43 111 121 52 101 47 160 -13 147z"/>
<path d="M5369 4188 c-55 -39 -169 -155 -188 -191 -11 -21 -12 -32 -3 -52 23
-50 84 -24 141 59 35 51 113 216 102 216 -4 0 -28 -14 -52 -32z"/>
<path d="M3196 4854 c-70 -91 -129 -284 -130 -419 -1 -115 9 -135 68 -135 52
0 74 21 111 105 62 139 91 409 51 469 -26 41 -59 34 -100 -20z"/>
<path d="M4490 4015 c0 -13 -8 -29 -17 -35 -10 -6 -11 -9 -3 -6 8 3 23 9 33
12 21 8 23 54 2 54 -9 0 -15 -9 -15 -25z"/>
<path d="M4766 3754 c-6 -49 1 -118 16 -146 12 -24 30 -22 63 6 30 26 26 51
-6 41 -20 -7 -22 1 -23 84 -1 23 -8 38 -22 48 -20 13 -21 12 -28 -33z"/>
<path d="M4938 3508 c5 -20 49 -54 58 -46 12 12 -16 56 -39 60 -20 4 -23 1
-19 -14z"/>
<path d="M5030 3320 c0 -5 9 -10 20 -10 11 0 20 5 20 10 0 6 -9 10 -20 10 -11
0 -20 -4 -20 -10z"/>
<path d="M5352 3314 c1 -9 9 -19 16 -22 9 -3 13 2 10 14 -1 9 -9 19 -16 22 -9
3 -13 -2 -10 -14z"/>
<path d="M5240 3140 c0 -5 5 -10 11 -10 5 0 7 5 4 10 -3 6 -8 10 -11 10 -2 0
-4 -4 -4 -10z"/>
<path d="M7205 3870 c-3 -5 -1 -10 4 -10 6 0 11 5 11 10 0 6 -2 10 -4 10 -3 0
-8 -4 -11 -10z"/>
<path d="M6997 3849 c-8 -31 4 -47 15 -19 5 13 5 27 0 32 -6 6 -12 0 -15 -13z"/>
<path d="M6861 3844 c0 -11 3 -14 6 -6 3 7 2 16 -1 19 -3 4 -6 -2 -5 -13z"/>
<path d="M7046 3825 c-22 -34 -21 -65 3 -65 11 0 23 5 27 11 3 6 17 8 30 5 20
-5 24 -3 24 16 -1 56 -55 77 -84 33z"/>
<path d="M6830 3820 c0 -5 5 -10 10 -10 6 0 10 5 10 10 0 6 -4 10 -10 10 -5 0
-10 -4 -10 -10z"/>
<path d="M7215 3780 c-3 -5 -1 -10 4 -10 6 0 11 5 11 10 0 6 -2 10 -4 10 -3 0
-8 -4 -11 -10z"/>
<path d="M6686 3710 c-16 -16 -17 -22 -6 -35 7 -8 18 -15 25 -15 7 0 18 -6 24
-14 15 -17 48 -9 61 14 10 18 -7 43 -26 39 -22 -4 -34 2 -34 16 0 20 -21 18
-44 -5z"/>
<path d="M6931 3703 c-7 -15 -15 -40 -18 -55 -4 -26 -2 -28 32 -28 28 0 38 5
42 20 3 11 9 20 14 20 5 0 9 14 9 30 0 17 -5 30 -12 30 -7 0 -22 3 -34 6 -15
4 -23 -1 -33 -23z"/>
<path d="M7076 3683 c-3 -4 -6 -13 -6 -21 0 -7 -10 -22 -22 -33 -20 -16 -21
-20 -8 -29 20 -13 21 -13 53 15 20 18 26 31 22 44 -6 20 -29 34 -39 24z"/>
<path d="M6525 3630 c3 -5 8 -10 11 -10 2 0 4 5 4 10 0 6 -5 10 -11 10 -5 0
-7 -4 -4 -10z"/>
<path d="M6675 3630 c-4 -6 -3 -14 0 -20 9 -15 35 -12 35 4 0 17 -27 29 -35
16z"/>
<path d="M6745 3621 c-8 -13 12 -23 33 -17 12 4 24 -5 41 -29 l23 -35 -22 -18
c-26 -21 -20 -42 13 -42 37 0 67 -12 67 -26 0 -17 15 -25 33 -18 17 6 39 49
30 58 -11 11 -41 6 -46 -6 -3 -8 -6 -6 -6 5 -1 9 -5 17 -11 17 -19 0 -10 17
14 28 20 9 27 7 46 -13 27 -28 35 -26 43 12 3 16 9 36 12 46 9 22 -17 23 -55
0 -25 -15 -33 -15 -57 -3 -35 17 -31 16 -70 25 -18 4 -33 11 -33 16 0 12 -47
11 -55 0z"/>
<path d="M7114 3585 c-28 -34 -43 -45 -65 -45 -21 0 -27 -4 -23 -15 4 -8 1
-22 -6 -30 -7 -8 -9 -15 -4 -16 5 0 18 -2 30 -4 14 -3 25 3 34 20 19 35 37 31
57 -10 9 -19 20 -35 25 -35 11 0 21 47 15 70 -3 11 -1 23 4 26 12 7 8 67 -6
76 -17 13 -22 10 -61 -37z m36 -50 c0 -8 -7 -15 -15 -15 -26 0 -18 20 13 29 1
1 2 -6 2 -14z"/>
<path d="M6621 3551 c-10 -7 -11 -13 -2 -30 14 -26 47 -27 60 -3 17 32 -23 55
-58 33z"/>
<path d="M6962 3401 c-33 -41 -40 -61 -21 -61 6 0 8 -8 4 -19 -8 -26 17 -43
71 -47 39 -2 46 0 54 20 5 13 16 26 24 29 23 9 20 59 -5 91 -25 31 -39 33 -39
5 0 -13 -4 -18 -11 -13 -9 5 -10 -1 -5 -20 5 -22 3 -26 -14 -26 -11 0 -20 -5
-20 -12 0 -6 -3 -9 -6 -6 -3 4 2 21 11 38 14 28 15 34 3 47 -12 12 -19 8 -46
-26z m78 -71 c0 -5 -2 -10 -4 -10 -3 0 -8 5 -11 10 -3 6 -1 10 4 10 6 0 11 -4
11 -10z"/>
<path d="M6610 3404 c0 -17 22 -14 28 4 2 7 -3 12 -12 12 -9 0 -16 -7 -16 -16z"/>
<path d="M6687 3375 c3 -8 9 -12 14 -9 12 7 11 11 -5 17 -10 4 -13 1 -9 -8z"/>
<path d="M6700 3340 c0 -5 5 -10 10 -10 6 0 10 5 10 10 0 6 -4 10 -10 10 -5 0
-10 -4 -10 -10z"/>
<path d="M6855 3274 c-11 -8 -19 -20 -17 -25 1 -6 -8 -19 -20 -30 l-23 -19 24
-6 c23 -7 23 -8 6 -21 -17 -12 -17 -13 -2 -13 10 0 17 -8 17 -20 0 -11 11 -27
25 -36 47 -30 95 12 95 82 0 26 -57 104 -75 104 -5 -1 -19 -8 -30 -16z"/>
<path d="M6564 3254 c3 -9 6 -22 6 -30 0 -22 27 -16 33 8 8 28 1 38 -25 38
-14 0 -18 -5 -14 -16z"/>
<path d="M6704 3166 c-6 -14 -9 -28 -5 -33 12 -17 61 -43 62 -33 1 5 2 16 3
23 0 7 -10 25 -24 39 l-25 27 -11 -23z"/>
<path d="M6522 3148 c2 -15 9 -22 21 -22 9 1 17 -4 17 -12 0 -8 9 -14 20 -14
11 0 20 6 20 13 -1 22 -38 57 -60 57 -16 0 -21 -5 -18 -22z"/>
<path d="M6995 3130 c3 -5 10 -10 16 -10 5 0 9 5 9 10 0 6 -7 10 -16 10 -8 0
-12 -4 -9 -10z"/>
<path d="M6976 2995 c-16 -26 -52 -62 -80 -81 -44 -30 -47 -34 -21 -28 50 11
77 27 107 65 20 25 28 45 26 63 -3 25 -4 24 -32 -19z"/>
<path d="M6471 2626 c-8 -9 -11 -19 -7 -23 9 -9 29 13 24 27 -2 8 -8 7 -17 -4z"/>
<path d="M5997 3620 c-4 -14 -6 -36 -6 -50 1 -22 2 -20 10 8 6 19 9 41 7 50
-3 12 -6 10 -11 -8z"/>
<path d="M7626 2941 c-3 -5 1 -14 9 -21 12 -10 15 -10 15 3 0 19 -16 31 -24
18z"/>
<path d="M3476 2731 c-3 -4 6 -13 19 -19 15 -7 25 -8 25 -2 0 13 -38 32 -44
21z"/>
<path d="M3363 7236 c7 -14 13 -23 15 -21 7 6 -9 45 -18 45 -4 0 -3 -11 3 -24z"/>
<path d="M3315 7070 c-3 -5 -1 -10 4 -10 6 0 11 5 11 10 0 6 -2 10 -4 10 -3 0
-8 -4 -11 -10z"/>
<path d="M3620 6482 c0 -14 6 -22 16 -22 14 0 15 3 3 18 -7 9 -15 19 -16 21
-2 2 -3 -5 -3 -17z"/>
<path d="M7793 3003 l-23 -15 30 -35 c17 -18 30 -40 30 -48 0 -19 0 -19 61 1
59 19 67 33 44 68 -13 20 -26 26 -52 26 -20 0 -32 4 -28 10 10 16 -38 11 -62
-7z"/>
</g>
</svg>
